<?xml version="1.0" ?><!DOCTYPE svg  PUBLIC '-//W3C//DTD SVG 20010904//EN'  'http://www.w3.org/TR/2001/REC-SVG-20010904/DTD/svg10.dtd'><svg height="256.000000pt" preserveAspectRatio="xMidYMid meet" version="1.0" viewBox="0 0 256.000000 256.000000" width="256.000000pt" xmlns="http://www.w3.org/2000/svg"><g fill="#000000" stroke="none" transform="translate(0.000000,256.000000) scale(0.100000,-0.100000)"><path d="M2115 2410 c-129 -93 -143 -107 -156 -149 -11 -33 -21 -40 -137 -96 -284 -136 -456 -256 -695 -484 -196 -188 -428 -391 -663 -581 -278 -225 -258 -212 -276 -193 -22 21 -52 9 -84 -33 -32 -41 -29 -60 26 -142 124 -185 492 -546 640 -626 45 -24 55 -26 80 -16 56 23 87 75 64 108 -13 19 -5 31 108 177 184 237 409 503 569 673 79 84 177 189 217 235 96 106 247 336 342 516 70 132 78 144 117 161 33 14 59 41 119 122 94 126 98 135 90 192 -15 98 -112 191 -212 202 -48 6 -50 5 -149 -66z m-30 -538 c-98 -166 -241 -382 -290 -437 -41 -46 -46 -48 -56 -31 -52 86 -238 272 -339 337 l-24 16 29 27 c59 52 263 185 419 273 l158 89 83 -84 82 -84 -62 -106z m-1218 -702 c90 -59 202 -167 277 -269 36 -48 66 -93 66 -100 0 -6 -74 -96 -164 -200 -90 -104 -178 -207 -196 -230 -19 -23 -38 -41 -43 -41 -11 0 -65 50 -315 293 -114 111 -162 164 -160 177 3 19 444 410 463 410 5 0 38 -18 72 -40z"/></g></svg>