<?xml version="1.0" ?><!DOCTYPE svg  PUBLIC '-//W3C//DTD SVG 1.1//EN'  'http://www.w3.org/Graphics/SVG/1.1/DTD/svg11.dtd'><svg enable-background="new 0 0 24 24" height="24px" id="Layer_1" version="1.1" viewBox="0 0 24 24" width="24px" xml:space="preserve" xmlns="http://www.w3.org/2000/svg" xmlns:xlink="http://www.w3.org/1999/xlink"><path d="M17,6c-1.1,0-2-0.9-2-2c0.6,0,1-0.4,1-1V1c0-0.6-0.4-1-1-1H9C8.4,0,8,0.4,8,1v2c0,0.6,0.4,1,1,1c0,1.1-0.9,2-2,2  C6.4,6,6,6.4,6,7v16c0,0.6,0.4,1,1,1h10c0.6,0,1-0.4,1-1V7C18,6.4,17.6,6,17,6z M9,1h6v2H9V1z M16,22H8v-5h8V22z M16,16H8v-5h8V16z   M16,8v2H8V8V7.9c1.7-0.4,3-2,3-3.9h2c0,1.9,1.3,3.4,3,3.9V8z"/></svg>