<?xml version="1.0" ?><!DOCTYPE svg  PUBLIC '-//W3C//DTD SVG 1.1//EN'  'http://www.w3.org/Graphics/SVG/1.1/DTD/svg11.dtd'><svg enable-background="new 0 0 64 64" height="64px" id="Layer_1" version="1.1" viewBox="0 0 64 64" width="64px" xml:space="preserve" xmlns="http://www.w3.org/2000/svg" xmlns:xlink="http://www.w3.org/1999/xlink"><g><path d="M24.923,10.671h-2.947c-1.688,0-1.985-1.187-2.029-1.796V5.792c0-1.795-1.699-3.264-3.786-3.264h-3.165   c-2.089,0-3.787,1.468-3.787,3.264v2.934c0,1.788-1.492,1.937-1.893,1.945H4.233c-2.236,0-4.03,1.469-4.03,3.264v44.273   c0,1.794,1.794,3.264,4.03,3.264h20.69c2.237,0,4.032-1.47,4.032-3.264V13.935C28.955,12.14,27.161,10.671,24.923,10.671z    M25.037,55.77c0,0.916-0.731,1.657-1.632,1.657H5.862c-0.9,0-1.632-0.741-1.632-1.657v-39.42c0-0.915,0.731-1.657,1.632-1.657   h17.543c0.9,0,1.632,0.743,1.632,1.657V55.77z" fill="#241F20"/><path d="M19.911,24.687h-2.014c-2.441-0.038-2.841,2.247-2.841,2.247l-2.413,10.934c-0.309,0.253-0.65,0-0.65,0   l-1.068-11.396c-0.153-1.639-1.245-1.775-1.527-1.785H9.049c-1.608,0-1.756,1.269-1.764,1.677v8.523v3.524v14.042   c0.04,0.663,0.311,1.861,1.79,1.861h10.684c2.193,0,2.115-2.421,2.115-2.421V38.411v-3.524v-8.338   C21.873,24.61,19.911,24.687,19.911,24.687z" fill="#241F20"/><path d="M63.734,19.189c0-0.005,0-0.008,0-0.013c-0.058-1.89-1.549-0.451-1.549-0.451v-0.027   c-4.784,4.131-9.699,6.075-12.708,6.763c-3.309,0.759-12.437,3.933-15.347,11.685c-3.493,11.79-0.446,20.345,1.492,24.161   c0.031,0.022,0.51,0.361,0.742-0.007c0.007-0.009,0.013-0.008,0.02-0.014c-3.761-16.354,3.9-19.988,9.402-23.086   c0.997-0.548,1.877-1.064,2.706-1.564c-0.032,0.021-0.061,0.041-0.093,0.066c-10.726,7.602-10.643,11.911-10.703,14.971   c-0.041,2.167,0.727,2.151,1.692,1.601c0.472-0.186,9.406-3.707,12.44-5.61c0.003,0,0.003,0,0.006-0.003   c1.77-0.946,3.79-2.272,5.639-4.086C63.929,36.947,63.958,23.919,63.734,19.189z M54.37,42.224   c-0.564,0.431-1.141,0.803-1.712,1.125c0,0-5.373,3.314-8.841,3.248c-0.29-0.058-0.345-0.555-0.204-1.221   c1.02-2.164,3.203-4.393,4.6-5.68c0.414-0.357,0.838-0.724,1.249-1.1c0.003-0.004,0.016-0.013,0.016-0.013h-0.003   c0.504-0.456,0.988-0.922,1.422-1.381c0.025-0.025,0.048-0.041,0.076-0.066c1.536-1.455,1.715-2.469,1.689-2.946   c0.006-0.032,0.016-0.07,0.022-0.103c-0.01-0.054-0.035-0.099-0.055-0.146c-0.013-0.041-0.022-0.07-0.022-0.07h-0.003   c-0.3-0.548-1.339-0.567-1.345-0.567c-2.98,0.867-9.285,3.076-13.18,7.145c-0.016,0.016-0.02,0.01-0.035,0.028   c-0.953,0.922-1.275-0.242-1.301-0.341c0.16-1.055,0.68-2.454,1.709-3.836c-0.003,0-0.01,0-0.013,0   c0.016-0.016,0.035-0.031,0.048-0.051c0.086-0.115,0.185-0.227,0.277-0.341l-0.007-0.004c0,0,2.32-4.269,10.671-6.886   c0.004-0.003,0.01-0.003,0.013-0.005c1.894-0.763,3.707-1.347,5.25-1.777c0.01,0,0.013-0.006,0.019-0.008   c1.285-0.375,5.221-1.39,5.221-1.39v0.001c0.373-0.154,0.763-0.204,0.721,0.335C60.442,29.117,59.396,38.217,54.37,42.224z" fill="#241F20"/></g></svg>